<svg width="198" height="43" viewBox="0 0 198 43" xmlns="http://www.w3.org/2000/svg"><title>Shape</title><path d="M24.7 38V7.2h8.4l1.4-.3c2.2-.7 4.8-4.2 5.5-5.3l.7-1.1-1.3.2s-1.4.2-1.5.3H5.1L.4 8.4l1.7-.8c.1 0 .9-.4 1.8-.6.5-.1 5.1-.1 11.8-.1v31.2s0 .4-.3.9-.9 1-1 1.2l-1 .9h13.5l-2.1-2.4c-.1-.3-.1-.7-.1-.7zm73.7-2.7c.8-1.5 1.2-3.3 1.2-5.2 0-2.1-.5-3.9-1-4.7-.6-1.1-1.5-2.2-2.6-3.3-.5-.5-3-2.4-6.1-4.9-2.9-2.3-6.2-4.9-6.5-5.2l.1.2-.5-.6c-.4-.4-.8-.9-1.1-2.2l-.1-.6c0-.7.2-1.4.6-2.1.4-.8 1.9-1.7 4.2-1.6 2.2.1 4 .7 4.9 1.2 1.7.9 3.7 3.1 4 3.4l.9 1v-9l-.4-.1c-.1 0-5.8-1.8-11.2-1.5C79 .4 74.8 3 73.6 7c-.4 1.2-.6 2.4-.6 3.5 0 2.8 1.1 4.8 2.1 6.1 1.4 1.8 5.7 5.3 9.1 8.1 1.8 1.5 3.6 2.9 4.1 3.5 1 1 1.5 2.3 1.5 3.5v.5c-.3 2.4-1.3 3.6-3.1 4.2-2.2.6-5.6 0-7.1-.7-1.9-.9-3.6-2.9-4.1-3.5l-2.1-3.1-1-1.5v10.8l.2.2c.4.3 2.3 1.9 5.5 2.9 3.8 1.2 9.5.9 11.8.1 2.9-.9 6.2-2 8.5-6.3zm-38.1 3.4c.1.3.2.7.2 1 0 .3-.2.5-.3.5l-1.5 1h14.8l-1.6-1c-.4-.3-.8-.6-1.2-1-.7-.8-1.2-2.1-1.2-2.1L56.9.9l-.1-.4H44.7l1.2 1.2c.3.2.6.5.7 1l.1.4c0 .5-.1 1.1-.2 1.4-4.6 12.1-12.4 32.9-12.9 33.8-.6 1-1.7 1.8-1.9 1.9l-1.6 1h11.4l-1.4-1c-.1-.1-.4-.3-.4-.7l.2-1s3.4-8.8 3.9-10h12.9c.2.7 3.6 10.2 3.6 10.2zm-5.4-15.1h-9.3c.2-.6 4-10.4 4.8-12.6.8 2.2 4.1 11.4 4.5 12.6zm89.2-20.9l.1.4c0 .5-.1 1.1-.2 1.4-5.7 15.1-12.4 33-12.9 33.8-.6 1-1.7 1.7-1.9 1.9l-1.6 1H139l-1.4-1c-.1-.1-.4-.3-.4-.7l.2-1s3.4-8.8 3.9-10h12.9c.2.7 3.6 10.2 3.6 10.2.1.3.2.7.2 1 0 .3-.2.4-.3.5l-1.4 1H171l-1.6-1c-.4-.3-.8-.6-1.2-1-.6-.7-1.1-1.8-1.2-2.1L154.4.9l-.1-.4h-12l1.2 1.2c.1.3.4.6.6 1zm3.8 8.3c.8 2.2 4.1 11.4 4.5 12.6h-9.3c.2-.5 3.9-10.4 4.8-12.6zm39.9-8.7c0 .1.1.2.1.3-.1.2-.1.4-.2.5-.1.1-6.7 11.4-7.1 12.1-.8-1.3-7.8-12.3-7.8-12.3-.9-1.5-2.6-2-2.9-2.1h-10.8l-.2 1.1 1.2.6 1.9 1c1 .6 2 1.9 2.1 2 .2.2 1.3 1.9 4.3 6.6 0 0 5.2 8.2 5.9 9.3 0 .3.1 15.6.1 15.6v1.3c0 .7-.8 1.4-1.2 1.8l-1.3 1h14.6l-1.8-1.1c-.4-.2-.7-.5-.9-.7-.3-.4-.3-.9-.3-.9V20.9c0-.1.2-.3.2-.3 5.6-9.7 9.1-15.7 9.6-16.5.9-1.4 2.5-2.3 2.7-2.4l1.8-1-11.6-.1.9.9c.1.1.6.7.7.8zM103.5 7c-.4 1.2-.6 2.4-.6 3.5 0 2.8 1.1 4.8 2.1 6.1 1.4 1.8 5.7 5.4 9.2 8.2 1.9 1.5 3.5 2.9 4 3.4 1 1 1.5 2.3 1.5 3.5v.5c-.3 2.4-1.3 3.7-3.1 4.2-2.2.6-5.6 0-7.1-.7-1.9-.9-3.6-2.9-4.1-3.5l-3.1-4.6v10.8l.2.2c.3.3 2.2 1.9 5.5 2.9 3.8 1.2 9.5.9 11.8.1 2.7-.9 6.1-2 8.4-6.2 2.1-3.9 1.1-8.4.2-9.9-.6-1.1-1.5-2.2-2.6-3.3-.6-.5-3.2-2.6-6.1-4.9-2.6-2.1-6.2-4.9-6.5-5.2-.1-.1-.2-.3-.4-.4-.4-.4-.8-.9-1.1-2.2 0-.2-.1-.4-.1-.6 0-.7.2-1.4.6-2.1.4-.8 1.9-1.7 4.2-1.6 2.2.1 4 .7 4.9 1.2 1.6.9 3.6 3 4 3.4l.9 1v-9l-.4-.1c-1-.3-6.2-1.8-11.2-1.5-5.7.3-9.9 2.8-11.1 6.8z" fill="#FFF"/></svg>