<svg width="559" height="120" viewBox="0 0 559 120" xmlns="http://www.w3.org/2000/svg"><title>Group</title><path d="M68.796 107.123V20.035c2.706-.006 23.725-.1 23.725-.1l3.865-.857c6.224-1.965 13.498-11.882 15.588-14.873l2.102-3.025-3.624.613-4.247.735-92.846.016L.083 23.336l4.815-2.262c.263-.119 2.67-1.236 5.118-1.685 1.303-.255 14.388-.336 33.372-.255v88.286s-.044 1.128-.876 2.45c-.856 1.395-2.425 2.911-2.883 3.352l-2.82 2.661h38.236l-5.866-6.87c-.358-.618-.383-1.69-.383-1.89m208.402-7.381c2.323-4.35 3.501-9.268 3.501-14.582 0-5.991-1.505-10.948-2.802-13.374-1.733-3.23-4.131-6.29-7.316-9.362-1.514-1.43-8.414-6.886-17.291-13.87-8.195-6.467-17.501-13.803-18.322-14.74l.31.618-1.358-1.743c-1.211-1.259-2.329-2.423-2.994-6.11l-.155-1.725c0-1.902.549-3.9 1.621-5.949 1.24-2.348 5.47-4.724 11.816-4.422 6.254.305 11.302 2.024 13.737 3.396 4.68 2.531 10.584 8.797 11.241 9.504l2.667 2.874V4.717l-1.084-.33c-.155-.053-16.478-5.09-31.792-4.187-16.287.954-28.139 8.229-31.701 19.448-1.06 3.34-1.592 6.662-1.592 9.85 0 7.917 3.194 13.703 5.878 17.146 3.9 5.021 16.004 14.987 25.737 23.002 5.07 4.158 10.072 8.261 11.68 9.894 2.73 2.772 4.37 6.49 4.37 9.93l-.103 1.542c-.954 6.723-3.61 10.299-8.838 11.815-6.26 1.813-15.8-.075-20.02-2.065-5.458-2.6-10.204-8.333-11.529-10.03l-5.941-8.905-2.822-4.227-.003 30.561.538.477c.992.865 6.415 5.317 15.61 8.303 10.627 3.432 26.825 2.537 33.315.396 7.676-2.5 17.238-5.625 23.642-17.595M154.264 66.624h-26.356c.624-1.619 11.27-29.405 13.642-35.593 2.18 6.08 11.517 32.23 12.714 35.593m15.062 42.605c.283.745.596 1.899.596 2.76 0 .794-.693 1.29-.91 1.426l-4.332 2.844 41.825.017-4.48-2.861a13.91 13.91 0 0 1-3.307-2.917c-1.888-2.287-3.363-5.824-3.38-5.858.02.067-35.582-102.233-35.582-102.233l-.36-1.031H125.37l3.385 3.401c.746.655 1.661 1.442 2.107 2.687l.145 1.134c0 1.36-.408 3.038-.694 3.84-12.868 34.34-35.024 93.14-36.43 95.665-1.702 2.922-4.705 4.954-5.295 5.328l-4.41 2.845h32.16l-4.089-2.82c-.296-.205-.992-.798-1.064-1.84.036-.012.549-2.884.549-2.884.01.045 9.572-24.898 10.914-28.399h36.508c.685 1.918 10.169 28.896 10.169 28.896m247.669-78.197c2.165 6.08 11.516 32.23 12.717 35.594h-26.367c.629-1.62 11.274-29.406 13.65-35.594m-10.7-23.567c0-.016.146 1.134.146 1.134 0 1.361-.41 3.052-.687 3.845-16.046 42.804-35.15 93.332-36.423 95.666-1.696 2.897-4.712 4.946-5.286 5.323l-4.408 2.844h32.111l-4.05-2.82c-.297-.207-.998-.798-1.073-1.843.044 0 .563-2.883.563-2.883 0 .044 9.55-24.895 10.895-28.397h36.516c.68 1.916 10.177 28.896 10.177 28.896.283.746.585 1.899.585 2.761 0 .743-.637 1.259-.915 1.467l-3.956 2.8 41.446.019-4.464-2.861a14.467 14.467 0 0 1-3.315-2.92c-1.652-1.998-3.086-5.108-3.371-5.846.016.056-35.577-102.241-35.577-102.241l-.366-1.032h-34.026l3.381 3.402c.788.696 1.661 1.464 2.096 2.686m123.73-1.13c.066.18.18.533.324.92a79.092 79.092 0 0 0-.46 1.481c-.177.264-19.029 32.275-20.105 34.102a97985.957 97985.957 0 0 0-22.095-34.834c-2.614-4.308-7.321-5.794-8.239-6.052l-.2-.06-30.112.016-.68 3.094 3.527 1.597 5.478 2.764c2.922 1.757 5.675 5.425 5.919 5.777a1.96 1.96 0 0 0-.091.13c.535.527 3.676 5.476 12.084 18.677 0 0 14.776 23.215 16.783 26.365.006.87.402 44.193.402 44.193l-.041 3.604c-.1 1.976-2.204 4.089-3.424 5.009l-3.654 2.778h41.18l-5.17-3.105c-1.157-.632-2.041-1.334-2.518-1.99-.724-1.02-.782-2.415-.782-2.435V59.028c.133-.238.513-.893.513-.893 15.916-27.476 25.804-44.461 27.146-46.593 2.442-3.876 7.03-6.454 7.538-6.74l5.217-2.852-32.923-.244 2.475 2.617s1.564 1.658 1.908 2.012M291.488 19.648c-1.054 3.34-1.592 6.662-1.592 9.85 0 7.917 3.202 13.703 5.883 17.146 3.959 5.09 16.19 15.148 26.024 23.24 5.314 4.372 9.827 8.082 11.39 9.656 2.732 2.772 4.364 6.49 4.364 9.93-.002.009-.1 1.536-.1 1.536-.97 6.737-3.612 10.324-8.843 11.821-6.26 1.813-15.805-.075-20.019-2.065-5.45-2.6-10.196-8.333-11.524-10.03-.005 0-8.74-13.1-8.74-13.1l-.031 5.06v25.47l.54.457c.973.865 6.351 5.317 15.614 8.322 10.617 3.432 26.821 2.537 33.3.396 7.68-2.5 17.25-5.613 23.664-17.595 5.903-11.053 3.017-23.612.699-27.956-1.755-3.235-4.145-6.29-7.347-9.362-1.56-1.489-9.15-7.471-17.165-13.792-7.48-5.894-17.58-13.847-18.425-14.818v.083c-.258-.374-.624-.756-1.037-1.208-1.222-1.259-2.35-2.423-3.019-6.102a10.863 10.863 0 0 1-.144-1.727c0-1.916.546-3.906 1.627-5.972 1.242-2.331 5.456-4.707 11.81-4.405 6.243.305 11.294 2.024 13.748 3.396 4.53 2.462 10.152 8.353 11.23 9.52l2.667 2.856V4.705l-1.092-.33c-2.805-.842-17.5-5.017-31.8-4.175-16.274.954-28.125 8.229-31.682 19.448" fill="#FFF" fill-rule="evenodd"/></svg>